<svg xmlns="http://www.w3.org/2000/svg" xmlns:xlink="http://www.w3.org/1999/xlink" viewBox="0 0 515.59 515.59"><defs><style>.cls-1{isolation:isolate;}.cls-2{fill:url(#linear-gradient);}.cls-10,.cls-3,.cls-4{mix-blend-mode:screen;}.cls-3,.cls-5,.cls-8{opacity:0.5;}.cls-3{fill:url(#linear-gradient-2);}.cls-4{opacity:0.8;fill:url(#radial-gradient);}.cls-11,.cls-12,.cls-13,.cls-5,.cls-6,.cls-7,.cls-8{mix-blend-mode:multiply;}.cls-5{fill:url(#linear-gradient-3);}.cls-6{fill:url(#radial-gradient-2);}.cls-11,.cls-7{opacity:0.3;}.cls-7{fill:url(#linear-gradient-4);}.cls-8{fill:url(#linear-gradient-5);}.cls-9{fill:url(#linear-gradient-6);}.cls-10{opacity:0.6;fill:url(#linear-gradient-7);}.cls-11{fill:url(#linear-gradient-8);}.cls-12{opacity:0.4;fill:url(#linear-gradient-9);}.cls-13{fill:url(#radial-gradient-3);}.cls-14{fill:#e5ffff;}</style><linearGradient id="linear-gradient" x1="257.79" y1="199.41" x2="257.79" y2="517.24" gradientUnits="userSpaceOnUse"><stop offset="0" stop-color="#d9923c"/><stop offset="1" stop-color="#bd6519"/></linearGradient><linearGradient id="linear-gradient-2" x1="155.15" y1="61.05" x2="273.23" y2="287.36" gradientUnits="userSpaceOnUse"><stop offset="0" stop-color="#ffd37e"/><stop offset="1"/></linearGradient><radialGradient id="radial-gradient" cx="139.06" cy="52.48" r="244.19" xlink:href="#linear-gradient-2"/><linearGradient id="linear-gradient-3" x1="145.51" y1="-161.38" x2="293.11" y2="389.62" gradientUnits="userSpaceOnUse"><stop offset="0" stop-color="#fff"/><stop offset="1" stop-color="#bd6519"/></linearGradient><radialGradient id="radial-gradient-2" cx="354.22" cy="509.03" r="247.6" gradientUnits="userSpaceOnUse"><stop offset="0" stop-color="#a95c19"/><stop offset="1" stop-color="#fff"/></radialGradient><linearGradient id="linear-gradient-4" x1="331.19" y1="357.26" x2="466.94" y2="532.2" gradientUnits="userSpaceOnUse"><stop offset="0" stop-color="#8b4519"/><stop offset="1" stop-color="#fff"/></linearGradient><linearGradient id="linear-gradient-5" x1="312.56" y1="345.79" x2="449" y2="553.07" xlink:href="#linear-gradient-4"/><linearGradient id="linear-gradient-6" x1="250.36" y1="214.25" x2="290.38" y2="448.68" gradientUnits="userSpaceOnUse"><stop offset="0" stop-color="#32a9e5"/><stop offset="1" stop-color="#007fc3"/></linearGradient><linearGradient id="linear-gradient-7" x1="219.13" y1="116.7" x2="247.99" y2="242.64" gradientUnits="userSpaceOnUse"><stop offset="0" stop-color="#35b5ff"/><stop offset="1"/></linearGradient><linearGradient id="linear-gradient-8" x1="268.82" y1="368.86" x2="254.38" y2="267.84" gradientUnits="userSpaceOnUse"><stop offset="0" stop-color="#fff"/><stop offset="1" stop-color="#0072b5"/></linearGradient><linearGradient id="linear-gradient-9" x1="128.54" y1="-170.09" x2="242.68" y2="207.75" xlink:href="#linear-gradient-8"/><radialGradient id="radial-gradient-3" cx="321.54" cy="399.28" r="258.75" gradientUnits="userSpaceOnUse"><stop offset="0" stop-color="#00639f"/><stop offset="1" stop-color="#fff"/></radialGradient></defs><g class="cls-1"><g id="Layer_2" data-name="Layer 2"><g id="Layer_3" data-name="Layer 3"><g id="_1" data-name="1"><path class="cls-2" d="M257.79,515.59A257.79,257.79,0,0,1,75.51,75.51,257.79,257.79,0,1,1,440.08,440.08,256.12,256.12,0,0,1,257.79,515.59Z"/><path class="cls-3" d="M99.63,435.2A19.17,19.17,0,0,1,86,429.57,242.93,242.93,0,0,1,429.57,86,241,241,0,0,1,486,174.11a19.24,19.24,0,0,1-36.14,13.24,204.55,204.55,0,0,0-336.61-74.12,204.45,204.45,0,0,0,0,289.13,19.24,19.24,0,0,1-13.6,32.84Z"/><path class="cls-4" d="M11.81,276.82c0-67.29,26.88-130.54,75.7-178.12S201.22,24.93,270.26,24.93c55.22,0,107.79,16.78,151.6,47.84a247.29,247.29,0,0,0-411.36,185,251.48,251.48,0,0,0,1.44,26.84C11.86,282,11.81,279.43,11.81,276.82Z"/><path class="cls-5" d="M440.08,75.51A257.79,257.79,0,1,0,75.51,440.08,257.79,257.79,0,1,0,440.08,75.51Zm-8.75,346.61c-47.14,45.47-109.82,70.51-176.49,70.51s-129.35-25-176.49-70.51S5.25,316.19,5.25,251.89s26-124.76,73.1-170.23S188.17,11.15,254.84,11.15s129.35,25,176.49,70.51,73.11,105.93,73.11,170.23S478.47,376.65,431.33,422.12Z"/><path class="cls-6" d="M433.59,426.38c-47.14,45.47-111.75,71.5-178.42,71.5-64.74,0-131.85-25.59-172.72-65.6,0,4.92.13,9.84.32,14.76a257.8,257.8,0,0,0,432.1-169.8q-3.82-5.82-7.83-11.5C500.72,339.35,478.31,383.25,433.59,426.38Z"/><path class="cls-7" d="M258.53,467.05c-52.11,0-101.1-21.16-137.94-59.58S63.45,318,63.45,263.63,83.74,158.21,120.59,119.8,205,64.28,257.09,64.28,359.63,81.37,396.48,119.8s57.13,89.5,57.13,143.83-15.93,106.68-52.77,145.1S310.64,467.05,258.53,467.05Z"/><path class="cls-8" d="M258.53,460.49c-50.41,0-97.81-20.47-133.45-57.64S69.8,316.26,69.8,263.7s19.63-102,55.28-139.15,81.65-53.71,132.06-53.71S356.34,87.38,392,124.55s55.28,86.58,55.28,139.15S431.85,366.91,396.2,404.07,308.94,460.49,258.53,460.49Z"/><path class="cls-9" d="M257.79,439.5a181.7,181.7,0,1,1,128.49-53.22A180.51,180.51,0,0,1,257.79,439.5Z"/><path class="cls-10" d="M241.39,337.82c-38,1.93-73.76-9.16-100.65-31.21s-41.69-52.43-41.69-85.55,14.81-65,41.69-89.78,62.63-39.49,100.65-41.41S315.16,99,342.05,121.08s41.69,52.43,41.69,85.55-14.81,65-41.69,89.78S279.42,335.89,241.39,337.82Z"/><path class="cls-11" d="M229.31,316.17c-52.86,0-102.57-17-140.1-47.87,5.61,30.92,21.34,59.4,45.69,82,30.94,28.74,71.92,47.19,115.68,47.19s85.06-18.45,116-47.19,48-67,48-107.61a144,144,0,0,0-2.41-26.25C389.64,296.5,282.49,316.17,229.31,316.17Z"/><path class="cls-12" d="M386.28,129.31A181.71,181.71,0,1,0,439.5,257.79,180.52,180.52,0,0,0,386.28,129.31ZM368.65,354.22c-31.16,29.86-72.59,46.3-116.65,46.3s-85.5-16.44-116.66-46.3-49.41-68-49.41-110.2,17.16-81.93,48.32-111.79,72.59-46.3,116.66-46.3,85.49,16.45,116.65,46.3S415.88,201.79,415.88,244,399.81,324.36,368.65,354.22Z"/><path class="cls-13" d="M375.54,362.75c-31.16,29.86-72.81,49.2-122,48.21-44.06-.88-118.41-20.88-164.33-86.48,1.35,10.67,24.93,50.73,44.5,66A181.7,181.7,0,0,0,439.5,257.79c0-5.73-.28-11.42-.8-17.05-.09-12.46-8.39-44.39-13.86-55.1C439.49,282.94,406.7,332.89,375.54,362.75Z"/><path class="cls-14" d="M209.91,105c-12.16-3-34.77,11.81-35.42,20.34-.86,11.19,14.43,9.18,30.83.65C218.4,119.14,217.78,106.92,209.91,105Z"/><path class="cls-14" d="M152.67,140.2c-8.77.65-15.26,7.52-13.82,13.35,1.89,7.66,10.14,6.45,16.41.24C162.62,146.51,158.35,139.78,152.67,140.2Z"/></g></g></g></g></svg>